<?xml version="1.0" standalone="no"?>
<!DOCTYPE svg PUBLIC "-//W3C//DTD SVG 20010904//EN"
 "http://www.w3.org/TR/2001/REC-SVG-20010904/DTD/svg10.dtd">
<svg version="1.0" xmlns="http://www.w3.org/2000/svg"
 width="772.000000pt" height="820.000000pt" viewBox="0 0 772.000000 820.000000"
 preserveAspectRatio="xMidYMid meet">

<g transform="translate(0.000000,820.000000) scale(0.100000,-0.100000)"
fill="#000000" stroke="none">
<path d="M3795 5548 c-72 -26 -167 -110 -187 -165 -11 -31 -15 -33 -56 -33
-58 0 -225 -35 -319 -66 -109 -37 -170 -66 -242 -117 -141 -99 -237 -218 -341
-423 -65 -126 -95 -211 -113 -318 -12 -68 -13 -69 -52 -83 -116 -40 -199 -204
-174 -342 21 -112 98 -210 184 -233 l45 -12 0 -49 c0 -87 29 -182 100 -324
165 -332 356 -497 680 -583 63 -17 150 -33 194 -35 l79 -4 17 -40 c26 -56 83
-116 138 -142 73 -35 187 -33 270 5 69 32 134 96 152 149 l10 32 78 2 c98 2
324 58 412 103 98 49 178 107 243 173 63 65 162 207 206 296 52 104 97 266
104 376 2 35 5 40 33 46 77 15 150 85 184 176 27 71 25 176 -5 238 -25 52
-111 138 -161 162 -38 18 -39 20 -46 81 -11 101 -45 206 -106 330 -76 154
-116 213 -204 300 -97 95 -152 134 -275 194 -106 51 -258 92 -386 104 l-68 7
-24 46 c-54 107 -144 161 -265 160 -41 0 -88 -5 -105 -11z m155 -157 c54 -29
95 -85 94 -130 -2 -49 -40 -119 -76 -137 -36 -19 -112 -18 -155 2 -49 24 -83
78 -83 134 0 53 16 80 73 121 47 34 96 38 147 10z m-346 -235 c4 -19 24 -58
45 -86 111 -147 296 -172 426 -57 45 39 89 105 100 150 9 33 19 34 156 6 113
-22 287 -90 366 -142 139 -92 223 -204 307 -408 37 -90 68 -252 51 -267 -6 -5
-31 -16 -57 -26 -67 -25 -143 -109 -164 -184 -44 -149 26 -303 165 -366 l59
-26 -5 -48 c-20 -202 -116 -414 -244 -540 -144 -143 -373 -242 -557 -242 l-58
0 -18 57 c-27 86 -101 155 -195 183 -87 27 -149 22 -228 -16 -64 -31 -129
-102 -144 -158 -6 -23 -13 -47 -15 -55 -10 -32 -232 12 -393 78 -255 106 -448
377 -485 681 l-7 55 55 27 c60 30 102 78 151 176 40 78 39 149 -3 234 -37 75
-73 113 -150 153 -52 28 -57 33 -54 60 6 71 26 163 42 195 9 19 20 48 24 63
15 61 136 245 204 309 115 108 276 181 462 209 164 24 157 25 164 -15z m-943
-951 c52 -19 87 -49 105 -92 28 -65 13 -122 -44 -176 -52 -50 -147 -48 -206 4
-41 36 -69 101 -61 140 9 42 62 109 98 124 41 18 55 18 108 0z m2567 -22 c70
-52 92 -140 53 -213 -22 -42 -83 -80 -129 -80 -69 0 -155 68 -167 133 -4 20 1
53 12 87 15 45 25 59 58 78 50 28 131 26 173 -5z m-1267 -1186 c73 -49 98
-129 63 -202 -22 -46 -47 -66 -94 -75 -107 -19 -200 56 -200 161 0 38 5 48 50
91 46 44 54 48 98 48 34 0 59 -7 83 -23z"/>
<path d="M3185 4936 c-76 -24 -123 -55 -160 -106 -88 -120 -86 -260 7 -365 73
-82 184 -119 281 -92 26 7 38 -2 166 -127 104 -102 151 -141 193 -159 30 -14
58 -29 61 -34 3 -5 -20 -24 -51 -43 -31 -18 -82 -55 -111 -82 -30 -26 -58 -48
-62 -48 -9 0 -99 -117 -99 -128 0 -5 -40 -6 -88 -4 -63 3 -105 0 -144 -12
-107 -31 -190 -136 -204 -259 -6 -53 -4 -63 30 -133 78 -156 234 -215 382
-145 103 49 155 129 169 265 7 60 10 69 34 79 14 6 44 29 66 51 22 23 43 40
47 38 5 -1 7 3 5 10 -1 7 3 12 8 13 14 0 135 122 135 135 0 5 3 10 6 10 5 0
92 -77 238 -211 34 -30 76 -66 94 -78 29 -20 32 -27 32 -75 0 -71 47 -167 102
-206 50 -37 138 -70 183 -70 98 0 215 81 263 183 45 95 20 243 -53 319 -62 64
-116 83 -226 82 l-96 -1 -34 50 c-37 55 -140 143 -206 176 -40 20 -43 24 -43
62 0 38 6 47 102 144 56 57 105 102 109 100 7 -5 70 60 86 90 9 15 16 16 61 6
91 -19 179 15 254 98 52 57 73 118 71 202 -3 150 -133 270 -291 269 -71 -1
-116 -17 -179 -63 -71 -52 -103 -115 -103 -205 l0 -70 -37 -23 c-56 -34 -87
-62 -196 -172 l-98 -99 -52 49 c-29 26 -74 72 -102 102 -27 29 -80 76 -117
104 l-68 50 0 52 c0 79 -26 141 -84 201 -75 76 -179 102 -281 70z m148 -164
c30 -18 67 -85 67 -120 0 -36 -25 -87 -55 -110 -21 -17 -41 -22 -88 -22 -56 0
-62 2 -98 38 -40 41 -55 78 -45 115 7 29 73 106 100 118 27 11 83 2 119 -19z
m1210 14 c18 -7 47 -30 65 -50 57 -66 38 -154 -43 -197 -59 -31 -101 -21 -154
36 -65 71 -67 119 -6 177 54 50 83 58 138 34z m-885 -444 c86 -86 101 -112 68
-112 -23 0 -226 208 -226 231 0 20 0 20 33 -2 17 -13 74 -65 125 -117z m538
41 c-32 -32 -85 -94 -117 -138 -33 -44 -69 -90 -80 -102 -24 -26 -59 -31 -59
-9 0 14 137 184 176 218 21 18 126 88 133 88 2 0 -22 -26 -53 -57z m-272 -307
c10 -53 -1 -83 -34 -89 -16 -4 -63 -38 -108 -79 -109 -101 -201 -179 -240
-207 -30 -21 -35 -22 -49 -8 -13 12 -13 18 -2 38 7 13 14 26 14 29 0 3 45 50
100 105 68 69 124 114 175 143 41 24 86 56 100 72 14 15 28 29 31 29 4 1 10
-14 13 -33z m74 -111 c41 -17 193 -162 248 -237 25 -34 34 -54 29 -68 -6 -18
-17 -11 -98 62 -107 97 -225 215 -238 241 -12 22 8 23 59 2z m-685 -369 c18
-7 45 -27 59 -44 74 -89 15 -223 -99 -222 -40 1 -106 33 -131 65 -30 38 -27
76 10 136 44 72 95 93 161 65z m1259 -25 c98 -62 86 -180 -24 -237 -78 -40
-188 34 -188 127 0 62 74 139 135 139 17 0 52 -13 77 -29z"/>
</g>
</svg>
