<?xml version="1.0" standalone="no"?>
<!DOCTYPE svg PUBLIC "-//W3C//DTD SVG 20010904//EN"
 "http://www.w3.org/TR/2001/REC-SVG-20010904/DTD/svg10.dtd">
<svg version="1.0" xmlns="http://www.w3.org/2000/svg"
 width="32.000000pt" height="32.000000pt" viewBox="0 0 32.000000 32.000000"
 preserveAspectRatio="xMidYMid meet">

<g transform="translate(0.000000,32.000000) scale(0.100000,-0.100000)"
fill="#000000" stroke="none">
<path d="M135 280 c-3 -5 -15 -10 -25 -10 -19 0 -70 -53 -70 -72 0 -6 -7 -20
-16 -30 -14 -14 -14 -20 -4 -33 7 -8 20 -29 29 -47 16 -32 21 -36 81 -63 34
-14 38 -14 86 9 41 20 53 32 72 73 l22 50 -23 44 c-13 25 -36 50 -53 58 -16 8
-37 18 -46 23 -24 11 -45 10 -53 -2z m43 -11 c-2 -6 -8 -10 -13 -10 -5 0 -11
4 -13 10 -2 6 4 11 13 11 9 0 15 -5 13 -11z m-30 -21 c10 -10 17 -10 33 1 48
29 119 -40 83 -80 -16 -17 -16 -20 -1 -37 21 -23 4 -61 -37 -81 -25 -12 -30
-11 -38 3 -11 20 -26 20 -47 2 -21 -18 -54 -5 -77 29 -14 22 -15 29 -4 51 11
19 11 27 2 36 -18 18 -14 36 13 63 26 27 54 32 73 13z m-90 -96 c2 -7 -3 -12
-12 -12 -9 0 -16 7 -16 16 0 17 22 14 28 -4z m240 0 c2 -7 -3 -12 -12 -12 -9
0 -16 7 -16 16 0 17 22 14 28 -4z m-120 -113 c-5 -14 -21 -14 -26 0 -2 6 4 11
13 11 9 0 15 -5 13 -11z"/>
<path d="M81 221 c-11 -21 -9 -24 45 -53 29 -16 32 -16 49 0 10 9 15 11 11 5
-4 -7 -2 -13 3 -13 6 0 11 5 11 10 0 6 6 10 14 10 7 0 19 7 26 16 11 12 10 18
-4 32 -15 16 -18 15 -40 -13 -13 -17 -33 -31 -45 -31 -11 -1 -19 2 -17 5 2 3
0 16 -5 29 -10 27 -35 29 -48 3z m39 -11 c0 -5 -7 -10 -15 -10 -8 0 -15 5 -15
10 0 6 7 10 15 10 8 0 15 -4 15 -10z m120 0 c0 -5 -7 -10 -15 -10 -8 0 -15 5
-15 10 0 6 7 10 15 10 8 0 15 -4 15 -10z"/>
<path d="M157 142 c-9 -10 -26 -18 -38 -19 -29 -2 -43 -18 -36 -37 8 -21 36
-20 44 2 4 9 14 22 22 29 13 10 20 7 42 -19 27 -32 59 -34 59 -3 0 16 -45 40
-67 36 -8 -1 -10 4 -7 14 8 20 1 19 -19 -3z m-39 -43 c-2 -6 -8 -10 -13 -10
-5 0 -11 4 -13 10 -2 6 4 11 13 11 9 0 15 -5 13 -11z m114 -4 c0 -5 -5 -11
-11 -13 -6 -2 -11 4 -11 13 0 9 5 15 11 13 6 -2 11 -8 11 -13z"/>
</g>
</svg>
